<?xml version="1.0" encoding="UTF-8" standalone="no"?>
<!DOCTYPE svg PUBLIC "-//W3C//DTD SVG 1.1//EN"
 "http://www.w3.org/Graphics/SVG/1.1/DTD/svg11.dtd">
<!-- Generated by graphviz version 2.43.0 (0)
 -->
<!-- Title: PipelineArchitecture Pages: 1 -->
<svg width="1047pt" height="138pt"
 viewBox="0.00 0.00 1047.00 138.00" xmlns="http://www.w3.org/2000/svg" xmlns:xlink="http://www.w3.org/1999/xlink">
<g id="graph0" class="graph" transform="scale(1 1) rotate(0) translate(4 134)">
<title>PipelineArchitecture</title>
<polygon fill="white" stroke="transparent" points="-4,4 -4,-134 1043,-134 1043,4 -4,4"/>
<g id="clust1" class="cluster">
<title>cluster_input</title>
<polygon fill="none" stroke="gray" stroke-dasharray="5,2" points="8,-16 8,-91 143,-91 143,-16 8,-16"/>
<text text-anchor="middle" x="75.5" y="-75.8" font-family="Helvetica,Arial,sans-serif" font-size="14.00">Input</text>
</g>
<g id="clust2" class="cluster">
<title>cluster_pipeline</title>
<polygon fill="none" stroke="gray" stroke-dasharray="5,2" points="212,-8 212,-122 815,-122 815,-8 212,-8"/>
<text text-anchor="middle" x="513.5" y="-106.8" font-family="Helvetica,Arial,sans-serif" font-size="14.00">Pipeline</text>
</g>
<g id="clust3" class="cluster">
<title>cluster_t1</title>
<polygon fill="none" stroke="gray" stroke-dasharray="5,2" points="220,-16 220,-91 360,-91 360,-16 220,-16"/>
<text text-anchor="middle" x="290" y="-75.8" font-family="Helvetica,Arial,sans-serif" font-size="14.00">Fitted Transformer 1</text>
</g>
<g id="clust4" class="cluster">
<title>cluster_t2</title>
<polygon fill="none" stroke="gray" stroke-dasharray="5,2" points="397,-16 397,-91 537,-91 537,-16 397,-16"/>
<text text-anchor="middle" x="467" y="-75.8" font-family="Helvetica,Arial,sans-serif" font-size="14.00">Fitted Transformer 2</text>
</g>
<g id="clust5" class="cluster">
<title>cluster_tn</title>
<polygon fill="none" stroke="gray" stroke-dasharray="5,2" points="665,-16 665,-91 807,-91 807,-16 665,-16"/>
<text text-anchor="middle" x="736" y="-75.8" font-family="Helvetica,Arial,sans-serif" font-size="14.00">Fitted Transformer N</text>
</g>
<g id="clust6" class="cluster">
<title>cluster_output</title>
<polygon fill="none" stroke="gray" stroke-dasharray="5,2" points="889,-16 889,-91 1031,-91 1031,-16 889,-16"/>
<text text-anchor="middle" x="960" y="-75.8" font-family="Helvetica,Arial,sans-serif" font-size="14.00">Output</text>
</g>
<!-- df_in -->
<g id="node1" class="node">
<title>df_in</title>
<path fill="lightyellow" stroke="lightblue" stroke-width="2" d="M123,-60C123,-60 28,-60 28,-60 22,-60 16,-54 16,-48 16,-48 16,-36 16,-36 16,-30 22,-24 28,-24 28,-24 123,-24 123,-24 129,-24 135,-30 135,-36 135,-36 135,-48 135,-48 135,-54 129,-60 123,-60"/>
<text text-anchor="middle" x="75.5" y="-38.3" font-family="Helvetica,Arial,sans-serif" font-size="14.00">Input DataFrame</text>
</g>
<!-- t1_transform -->
<g id="node2" class="node">
<title>t1_transform</title>
<path fill="lavender" stroke="lightblue" stroke-width="2" d="M317,-60C317,-60 263,-60 263,-60 257,-60 251,-54 251,-48 251,-48 251,-36 251,-36 251,-30 257,-24 263,-24 263,-24 317,-24 317,-24 323,-24 329,-30 329,-36 329,-36 329,-48 329,-48 329,-54 323,-60 317,-60"/>
<text text-anchor="middle" x="290" y="-38.3" font-family="Helvetica,Arial,sans-serif" font-size="14.00">Transform</text>
</g>
<!-- df_in&#45;&gt;t1_transform -->
<g id="edge1" class="edge">
<title>df_in&#45;&gt;t1_transform</title>
<path fill="none" stroke="black" d="M135.13,-42C168.35,-42 209.41,-42 240.75,-42"/>
<polygon fill="black" stroke="black" points="240.98,-45.5 250.98,-42 240.98,-38.5 240.98,-45.5"/>
<text text-anchor="middle" x="178.5" y="-45.8" font-family="Helvetica,Arial,sans-serif" font-size="14.00">receives</text>
</g>
<!-- t2_transform -->
<g id="node3" class="node">
<title>t2_transform</title>
<path fill="lavender" stroke="lightblue" stroke-width="2" d="M494,-60C494,-60 440,-60 440,-60 434,-60 428,-54 428,-48 428,-48 428,-36 428,-36 428,-30 434,-24 440,-24 440,-24 494,-24 494,-24 500,-24 506,-30 506,-36 506,-36 506,-48 506,-48 506,-54 500,-60 494,-60"/>
<text text-anchor="middle" x="467" y="-38.3" font-family="Helvetica,Arial,sans-serif" font-size="14.00">Transform</text>
</g>
<!-- t1_transform&#45;&gt;t2_transform -->
<g id="edge2" class="edge">
<title>t1_transform&#45;&gt;t2_transform</title>
<path fill="none" stroke="black" d="M329.4,-42C355.37,-42 389.85,-42 417.68,-42"/>
<polygon fill="black" stroke="black" points="417.99,-45.5 427.99,-42 417.99,-38.5 417.99,-45.5"/>
</g>
<!-- dots -->
<g id="node4" class="node">
<title>dots</title>
<path fill="white" stroke="transparent" stroke-width="2" d="M616,-60C616,-60 586,-60 586,-60 580,-60 574,-54 574,-48 574,-48 574,-36 574,-36 574,-30 580,-24 586,-24 586,-24 616,-24 616,-24 622,-24 628,-30 628,-36 628,-36 628,-48 628,-48 628,-54 622,-60 616,-60"/>
<text text-anchor="middle" x="601" y="-38.3" font-family="Helvetica,Arial,sans-serif" font-size="14.00">...</text>
</g>
<!-- t2_transform&#45;&gt;dots -->
<g id="edge3" class="edge">
<title>t2_transform&#45;&gt;dots</title>
<path fill="none" stroke="black" d="M506.18,-42C524.26,-42 545.74,-42 563.59,-42"/>
<polygon fill="black" stroke="black" points="563.62,-45.5 573.62,-42 563.62,-38.5 563.62,-45.5"/>
</g>
<!-- tn_transform -->
<g id="node5" class="node">
<title>tn_transform</title>
<path fill="lavender" stroke="lightblue" stroke-width="2" d="M763,-60C763,-60 709,-60 709,-60 703,-60 697,-54 697,-48 697,-48 697,-36 697,-36 697,-30 703,-24 709,-24 709,-24 763,-24 763,-24 769,-24 775,-30 775,-36 775,-36 775,-48 775,-48 775,-54 769,-60 763,-60"/>
<text text-anchor="middle" x="736" y="-38.3" font-family="Helvetica,Arial,sans-serif" font-size="14.00">Transform</text>
</g>
<!-- dots&#45;&gt;tn_transform -->
<g id="edge4" class="edge">
<title>dots&#45;&gt;tn_transform</title>
<path fill="none" stroke="black" d="M628.28,-42C644.97,-42 667.09,-42 686.86,-42"/>
<polygon fill="black" stroke="black" points="686.94,-45.5 696.94,-42 686.94,-38.5 686.94,-45.5"/>
</g>
<!-- df_out -->
<g id="node6" class="node">
<title>df_out</title>
<path fill="lightyellow" stroke="lightblue" stroke-width="2" d="M1011,-60C1011,-60 909,-60 909,-60 903,-60 897,-54 897,-48 897,-48 897,-36 897,-36 897,-30 903,-24 909,-24 909,-24 1011,-24 1011,-24 1017,-24 1023,-30 1023,-36 1023,-36 1023,-48 1023,-48 1023,-54 1017,-60 1011,-60"/>
<text text-anchor="middle" x="960" y="-38.3" font-family="Helvetica,Arial,sans-serif" font-size="14.00">Ouput DataFrame</text>
</g>
<!-- tn_transform&#45;&gt;df_out -->
<g id="edge5" class="edge">
<title>tn_transform&#45;&gt;df_out</title>
<path fill="none" stroke="black" d="M775.16,-42C805.65,-42 849.25,-42 886.34,-42"/>
<polygon fill="black" stroke="black" points="886.61,-45.5 896.61,-42 886.61,-38.5 886.61,-45.5"/>
<text text-anchor="middle" x="851" y="-45.8" font-family="Helvetica,Arial,sans-serif" font-size="14.00">produces</text>
</g>
</g>
</svg>
