<?xml version="1.0" encoding="UTF-8" standalone="no"?>
<!DOCTYPE svg PUBLIC "-//W3C//DTD SVG 1.1//EN"
 "http://www.w3.org/Graphics/SVG/1.1/DTD/svg11.dtd">
<!-- Generated by graphviz version 2.43.0 (0)
 -->
<!-- Title: TransformerArchitecture Pages: 1 -->
<svg width="1376pt" height="237pt"
 viewBox="0.00 0.00 1376.00 237.00" xmlns="http://www.w3.org/2000/svg" xmlns:xlink="http://www.w3.org/1999/xlink">
<g id="graph0" class="graph" transform="scale(1 1) rotate(0) translate(4 233)">
<title>TransformerArchitecture</title>
<polygon fill="white" stroke="transparent" points="-4,4 -4,-233 1372,-233 1372,4 -4,4"/>
<g id="clust1" class="cluster">
<title>cluster_input</title>
<polygon fill="none" stroke="gray" stroke-dasharray="5,2" points="8,-111 8,-186 143,-186 143,-111 8,-111"/>
<text text-anchor="middle" x="75.5" y="-170.8" font-family="Helvetica,Arial,sans-serif" font-size="14.00">Input</text>
</g>
<g id="clust2" class="cluster">
<title>cluster_training</title>
<polygon fill="none" stroke="gray" stroke-dasharray="5,2" points="434,-8 434,-85 587,-85 587,-8 434,-8"/>
<text text-anchor="middle" x="510.5" y="-69.8" font-family="Helvetica,Arial,sans-serif" font-size="14.00">Training</text>
</g>
<g id="clust3" class="cluster">
<title>cluster_transformer</title>
<polygon fill="none" stroke="gray" stroke-dasharray="5,2" points="263,-93 263,-221 1138,-221 1138,-93 263,-93"/>
<text text-anchor="middle" x="700.5" y="-205.8" font-family="Helvetica,Arial,sans-serif" font-size="14.00">Transformer</text>
</g>
<g id="clust4" class="cluster">
<title>cluster_output</title>
<polygon fill="none" stroke="gray" stroke-dasharray="5,2" points="1214,-132 1214,-207 1360,-207 1360,-132 1214,-132"/>
<text text-anchor="middle" x="1287" y="-191.8" font-family="Helvetica,Arial,sans-serif" font-size="14.00">Output</text>
</g>
<!-- df_in -->
<g id="node1" class="node">
<title>df_in</title>
<path fill="lightyellow" stroke="lightblue" stroke-width="2" d="M123,-155C123,-155 28,-155 28,-155 22,-155 16,-149 16,-143 16,-143 16,-131 16,-131 16,-125 22,-119 28,-119 28,-119 123,-119 123,-119 129,-119 135,-125 135,-131 135,-131 135,-143 135,-143 135,-149 129,-155 123,-155"/>
<text text-anchor="middle" x="75.5" y="-133.3" font-family="Helvetica,Arial,sans-serif" font-size="14.00">Input DataFrame</text>
</g>
<!-- constructor -->
<g id="node3" class="node">
<title>constructor</title>
<path fill="lavender" stroke="lightblue" stroke-width="2" d="M345,-156C345,-156 283,-156 283,-156 277,-156 271,-150 271,-144 271,-144 271,-130 271,-130 271,-124 277,-118 283,-118 283,-118 345,-118 345,-118 351,-118 357,-124 357,-130 357,-130 357,-144 357,-144 357,-150 351,-156 345,-156"/>
<text text-anchor="middle" x="314" y="-140.8" font-family="Helvetica,Arial,sans-serif" font-size="14.00">Constructor</text>
<text text-anchor="middle" x="314" y="-125.8" font-family="Helvetica,Arial,sans-serif" font-size="14.00">(new)</text>
</g>
<!-- df_in&#45;&gt;constructor -->
<g id="edge1" class="edge">
<title>df_in&#45;&gt;constructor</title>
<path fill="none" stroke="black" d="M135.26,-137C173.78,-137 223.68,-137 260.79,-137"/>
<polygon fill="black" stroke="black" points="260.9,-140.5 270.9,-137 260.9,-133.5 260.9,-140.5"/>
<text text-anchor="middle" x="203" y="-140.8" font-family="Helvetica,Arial,sans-serif" font-size="14.00">instance created</text>
</g>
<!-- training_df -->
<g id="node2" class="node">
<title>training_df</title>
<path fill="lightyellow" stroke="lightblue" stroke-width="2" d="M567,-54C567,-54 454,-54 454,-54 448,-54 442,-48 442,-42 442,-42 442,-28 442,-28 442,-22 448,-16 454,-16 454,-16 567,-16 567,-16 573,-16 579,-22 579,-28 579,-28 579,-42 579,-42 579,-48 573,-54 567,-54"/>
<text text-anchor="middle" x="510.5" y="-38.8" font-family="Helvetica,Arial,sans-serif" font-size="14.00">Training DataFrame</text>
<text text-anchor="middle" x="510.5" y="-23.8" font-family="Helvetica,Arial,sans-serif" font-size="14.00">(stateful only)</text>
</g>
<!-- fit -->
<g id="node5" class="node">
<title>fit</title>
<path fill="lavender" stroke="lightblue" stroke-width="2" d="M806,-139C806,-139 702,-139 702,-139 696,-139 690,-133 690,-127 690,-127 690,-113 690,-113 690,-107 696,-101 702,-101 702,-101 806,-101 806,-101 812,-101 818,-107 818,-113 818,-113 818,-127 818,-127 818,-133 812,-139 806,-139"/>
<text text-anchor="middle" x="754" y="-123.8" font-family="Helvetica,Arial,sans-serif" font-size="14.00">Fit</text>
<text text-anchor="middle" x="754" y="-108.8" font-family="Helvetica,Arial,sans-serif" font-size="14.00">(learn parameters)</text>
</g>
<!-- training_df&#45;&gt;fit -->
<g id="edge3" class="edge">
<title>training_df&#45;&gt;fit</title>
<path fill="none" stroke="black" d="M565.7,-54.08C602.36,-66.98 650.93,-84.08 689.43,-97.62"/>
<polygon fill="black" stroke="black" points="688.39,-100.97 698.98,-100.99 690.71,-94.37 688.39,-100.97"/>
<text text-anchor="middle" x="634.5" y="-94.8" font-family="Helvetica,Arial,sans-serif" font-size="14.00">training data</text>
</g>
<!-- decision -->
<g id="node4" class="node">
<title>decision</title>
<path fill="lightgreen" stroke="lightblue" stroke-width="2" d="M498.95,-151.76C498.95,-151.76 457.87,-140.24 457.87,-140.24 452.09,-138.62 452.09,-135.38 457.87,-133.76 457.87,-133.76 498.95,-122.24 498.95,-122.24 504.72,-120.62 516.28,-120.62 522.05,-122.24 522.05,-122.24 563.13,-133.76 563.13,-133.76 568.91,-135.38 568.91,-138.62 563.13,-140.24 563.13,-140.24 522.05,-151.76 522.05,-151.76 516.28,-153.38 504.72,-153.38 498.95,-151.76"/>
<text text-anchor="middle" x="510.5" y="-133.3" font-family="Helvetica,Arial,sans-serif" font-size="14.00">Stateful?</text>
</g>
<!-- constructor&#45;&gt;decision -->
<g id="edge2" class="edge">
<title>constructor&#45;&gt;decision</title>
<path fill="none" stroke="black" d="M357.2,-137C380.29,-137 409.54,-137 436.22,-137"/>
<polygon fill="black" stroke="black" points="436.31,-140.5 446.31,-137 436.31,-133.5 436.31,-140.5"/>
<text text-anchor="middle" x="399.5" y="-140.8" font-family="Helvetica,Arial,sans-serif" font-size="14.00">initialize</text>
</g>
<!-- decision&#45;&gt;fit -->
<g id="edge4" class="edge">
<title>decision&#45;&gt;fit</title>
<path fill="none" stroke="black" d="M562.13,-133.44C596.28,-131.03 641.89,-127.82 679.96,-125.14"/>
<polygon fill="black" stroke="black" points="680.24,-128.63 689.97,-124.44 679.75,-121.65 680.24,-128.63"/>
<text text-anchor="middle" x="634.5" y="-133.8" font-family="Helvetica,Arial,sans-serif" font-size="14.00">Yes</text>
</g>
<!-- transform -->
<g id="node6" class="node">
<title>transform</title>
<path fill="lavender" stroke="lightblue" stroke-width="2" d="M1118,-177C1118,-177 993,-177 993,-177 987,-177 981,-171 981,-165 981,-165 981,-151 981,-151 981,-145 987,-139 993,-139 993,-139 1118,-139 1118,-139 1124,-139 1130,-145 1130,-151 1130,-151 1130,-165 1130,-165 1130,-171 1124,-177 1118,-177"/>
<text text-anchor="middle" x="1055.5" y="-161.8" font-family="Helvetica,Arial,sans-serif" font-size="14.00">Transform</text>
<text text-anchor="middle" x="1055.5" y="-146.8" font-family="Helvetica,Arial,sans-serif" font-size="14.00">(apply transformation)</text>
</g>
<!-- decision&#45;&gt;transform -->
<g id="edge5" class="edge">
<title>decision&#45;&gt;transform</title>
<path fill="none" stroke="black" d="M552.3,-143.38C566.43,-145.41 582.39,-147.52 597,-149 758.97,-165.42 800.28,-169.33 963,-164 965.51,-163.92 968.05,-163.82 970.62,-163.72"/>
<polygon fill="black" stroke="black" points="970.78,-167.21 980.61,-163.26 970.46,-160.22 970.78,-167.21"/>
<text text-anchor="middle" x="754" y="-168.8" font-family="Helvetica,Arial,sans-serif" font-size="14.00">No</text>
</g>
<!-- fit&#45;&gt;transform -->
<g id="edge6" class="edge">
<title>fit&#45;&gt;transform</title>
<path fill="none" stroke="black" d="M818.15,-128.01C862.53,-133.64 922.38,-141.24 970.74,-147.37"/>
<polygon fill="black" stroke="black" points="970.52,-150.87 980.88,-148.66 971.4,-143.93 970.52,-150.87"/>
<text text-anchor="middle" x="899.5" y="-148.8" font-family="Helvetica,Arial,sans-serif" font-size="14.00">uses learned params</text>
</g>
<!-- df_out -->
<g id="node7" class="node">
<title>df_out</title>
<path fill="lightyellow" stroke="lightblue" stroke-width="2" d="M1340,-176C1340,-176 1234,-176 1234,-176 1228,-176 1222,-170 1222,-164 1222,-164 1222,-152 1222,-152 1222,-146 1228,-140 1234,-140 1234,-140 1340,-140 1340,-140 1346,-140 1352,-146 1352,-152 1352,-152 1352,-164 1352,-164 1352,-170 1346,-176 1340,-176"/>
<text text-anchor="middle" x="1287" y="-154.3" font-family="Helvetica,Arial,sans-serif" font-size="14.00">Output DataFrame</text>
</g>
<!-- transform&#45;&gt;df_out -->
<g id="edge7" class="edge">
<title>transform&#45;&gt;df_out</title>
<path fill="none" stroke="black" d="M1130.06,-158C1156.1,-158 1185.41,-158 1211.53,-158"/>
<polygon fill="black" stroke="black" points="1211.75,-161.5 1221.75,-158 1211.75,-154.5 1211.75,-161.5"/>
<text text-anchor="middle" x="1176" y="-161.8" font-family="Helvetica,Arial,sans-serif" font-size="14.00">produces</text>
</g>
</g>
</svg>
